<?xml version="1.0" standalone="no"?><!DOCTYPE svg PUBLIC "-//W3C//DTD SVG 1.1//EN" "http://www.w3.org/Graphics/SVG/1.1/DTD/svg11.dtd"><svg class="icon" width="200px" height="200.00px" viewBox="0 0 1024 1024" version="1.1" xmlns="http://www.w3.org/2000/svg"><path d="M508.357 74.966c-256.33 0-464.133 207.792-464.133 464.132 0 256.33 207.803 464.133 464.133 464.133 256.34 0 464.132-207.803 464.132-464.133 0-256.34-207.792-464.132-464.132-464.132zM807.32 367.574s-230 136.68-379.48 385.938C354.433 645.374 253.632 552.31 253.632 552.31s-3.458-79.852 48.108-54.913c0 0 41.242 17.13 112.467 85.839C622.942 397.046 786.157 328.45 786.157 328.45c40.054-20.13 21.163 39.123 21.163 39.123z" fill="#5AC146" /></svg>